# xmcd
#
# Track frame offsets:
# 150
# 27375
# 51295
# 70910
# 97260
# 120792
# 147355
# 167382
# 192225
# 216767
# 242205
#
# Disc length: 3538 seconds
#
#
# Revision: 3
# Processed by: cddbd v1.5.1PL0 Copyright (c) Steve Scherf et al.
# Submitted via: FreeRIP 2.90 
#
DISCID=9c0dd00b
DTITLE=Womack And Womack - Transformation To The House Of Zekkariyas
DYEAR=1900
DGENRE=Blues
TTITLE0=Drive (First Gear)
TTITLE1=Fiesta
TTITLE2=Understanding
TTITLE3=Passion and Pain
TTITLE4=Long Time
TTITLE5=Second Gear (Drive)
TTITLE6=Cand World
TTITLE7=Land Of Odd
TTITLE8=Pie In The Sky
TTITLE9=Secret Star
TTITLE10=Focus
EXTD=
EXTT0=
EXTT1=
EXTT2=
EXTT3=
EXTT4=
EXTT5=
EXTT6=
EXTT7=
EXTT8=
EXTT9=
EXTT10=
PLAYORDER=
